# xmcd
#
# Track frame offsets:
#	150
#	25766
#	43775
#	70562
#	87346
#	105549
#	127798
#	142808
#	164049
#	187653
#	211031
#	229745
#	245326
#	264505
#
# Disc length: 4034 seconds
#
# Revision: 0
# Processed by: cddbd v1.5.1PL0 Copyright (c) Steve Scherf et al.
# Submitted via: audiograbber 1.83.01
#
DISCID=ac0fc00e
DTITLE=Mick Martin and the Blues Rockers - Got to Play the Blues
DYEAR=1900
DGENRE=Blues
TTITLE0=Blues In My Soul
TTITLE1=I Believe In You
TTITLE2=Forever Ended Today
TTITLE3=Got to Play the Blues
TTITLE4=Playing With Fire
TTITLE5=Down the Rail
TTITLE6=I Don't Play Games
TTITLE7=Get My Baby Back
TTITLE8=Don't Give Up On Me
TTITLE9=Ride With Me
TTITLE10=Got to Change
TTITLE11=Sugar Pie
TTITLE12=Prove My Love
TTITLE13=Working Man Blues
EXTD=
EXTT0=
EXTT1=
EXTT2=
EXTT3=
EXTT4=
EXTT5=
EXTT6=
EXTT7=
EXTT8=
EXTT9=
EXTT10=
EXTT11=
EXTT12=
EXTT13=
PLAYORDER=
